<?xml version="1.0" encoding="UTF-8"?>
<!DOCTYPE svg PUBLIC "-//W3C//DTD SVG 1.1//EN" "http://www.w3.org/Graphics/SVG/1.1/DTD/svg11.dtd">
<!-- Creator: CorelDRAW 2021 (64-Bit) -->
<svg xmlns="http://www.w3.org/2000/svg" xml:space="preserve" width="72.3354mm" height="23.4239mm" version="1.1" style="shape-rendering:geometricPrecision; text-rendering:geometricPrecision; image-rendering:optimizeQuality; fill-rule:evenodd; clip-rule:evenodd"
viewBox="0 0 2787.03 902.51"
 xmlns:xlink="http://www.w3.org/1999/xlink"
 xmlns:xodm="http://www.corel.com/coreldraw/odm/2003">
 <defs>
  <style type="text/css">
   <![CDATA[
    .fil0 {fill:black;fill-rule:nonzero}
   ]]>
  </style>
 </defs>
 <g id="Layer_x0020_1">
  <metadata id="CorelCorpID_0Corel-Layer"/>
  <path class="fil0" d="M495.04 26.92c15.03,0 27.73,5.2 38.36,15.67 10.63,10.47 15.82,23.34 15.82,38.2 0,15.03 -5.27,27.98 -15.82,38.53 -10.71,10.71 -23.34,15.99 -38.36,15.99 -14.86,0 -27.65,-5.27 -38.36,-15.99 -10.55,-10.55 -15.82,-23.5 -15.82,-38.53 0,-14.86 5.2,-27.73 15.82,-38.2 10.63,-10.47 23.5,-15.67 38.36,-15.67zm1108.62 704.97c8.78,0 16.78,1.47 23.97,4.41 7.19,2.94 13.38,7.1 18.57,12.46 5.19,5.36 9.22,11.74 12.07,19.12 2.85,7.39 4.28,15.58 4.28,24.58 0,9 -1.43,17.19 -4.28,24.57 -2.85,7.39 -6.87,13.76 -12.07,19.13 -5.19,5.36 -11.38,9.52 -18.57,12.46 -7.19,2.94 -15.18,4.41 -23.97,4.41 -8.67,0 -16.63,-1.47 -23.88,-4.41 -7.25,-2.94 -13.47,-7.09 -18.66,-12.46 -5.19,-5.37 -9.22,-11.74 -12.07,-19.13 -2.86,-7.38 -4.28,-15.57 -4.28,-24.57 0,-9 1.43,-17.19 4.28,-24.58 2.85,-7.38 6.87,-13.76 12.07,-19.12 5.19,-5.36 11.41,-9.52 18.66,-12.46 7.25,-2.94 15.21,-4.41 23.88,-4.41zm0 109.55c7.19,0 13.67,-1.16 19.43,-3.46 5.76,-2.31 10.67,-5.59 14.72,-9.86 4.05,-4.27 7.16,-9.43 9.33,-15.49 2.17,-6.06 3.25,-12.78 3.25,-20.16 0,-7.5 -1.11,-14.25 -3.34,-20.25 -2.23,-6 -5.36,-11.13 -9.41,-15.4 -4.05,-4.27 -8.96,-7.56 -14.72,-9.86 -5.76,-2.31 -12.18,-3.46 -19.26,-3.46 -7.19,0 -13.67,1.16 -19.43,3.46 -5.76,2.31 -10.67,5.59 -14.72,9.86 -4.05,4.27 -7.19,9.41 -9.42,15.4 -2.22,6 -3.34,12.75 -3.34,20.25 0,7.38 1.11,14.1 3.34,20.16 2.23,6.06 5.36,11.22 9.42,15.49 4.05,4.27 8.96,7.56 14.72,9.86 5.76,2.3 12.24,3.46 19.43,3.46zm-155.71 -96.22l-42.97 0 0 -11.59 96.37 0 0 11.59 -41.43 0 0 106.08 -11.98 0 0 -106.08zm-108.46 -11.59l11.98 0 0 117.67 -11.98 0 0 -117.67zm-133.11 0l74.29 0 0 11.59 -62.31 0 0 38.77 58.03 0 0 11.25 -58.03 0 0 44.47 62.31 0 0 11.59 -74.29 0 0 -117.67zm-105.55 107.81c9.13,0 17.26,-2.02 24.39,-6.06 7.13,-4.04 12.7,-9.69 16.69,-16.96l9.07 7.79c-5.14,8.54 -12.04,15.14 -20.71,19.82 -8.67,4.67 -18.49,7 -29.44,7 -8.67,0 -16.61,-1.47 -23.8,-4.41 -7.19,-2.94 -13.35,-7.09 -18.49,-12.46 -5.14,-5.37 -9.13,-11.74 -11.98,-19.13 -2.85,-7.38 -4.28,-15.57 -4.28,-24.57 0,-9 1.43,-17.19 4.28,-24.58 2.86,-7.38 6.85,-13.76 11.98,-19.12 5.14,-5.36 11.3,-9.52 18.49,-12.46 7.19,-2.94 15.12,-4.41 23.8,-4.41 10.95,0 20.77,2.33 29.44,7.01 8.67,4.67 15.58,11.28 20.71,19.82l-9.07 7.79c-4,-7.27 -9.56,-12.92 -16.69,-16.96 -7.13,-4.04 -15.26,-6.06 -24.39,-6.06 -7.08,0 -13.47,1.16 -19.17,3.46 -5.71,2.31 -10.58,5.59 -14.64,9.86 -4.05,4.27 -7.16,9.41 -9.33,15.4 -2.17,6 -3.25,12.75 -3.25,20.25 0,7.38 1.08,14.1 3.25,20.16 2.17,6.06 5.28,11.22 9.33,15.49 4.05,4.27 8.93,7.56 14.64,9.86 5.71,2.3 12.09,3.46 19.17,3.46zm-206.55 -107.81l11.98 0 66.07 97.6 0 -97.6 11.98 0 0 117.67 -11.98 0 -66.07 -97.6 0 97.6 -11.98 0 0 -117.67zm-117.03 -1.73c8.78,0 16.78,1.47 23.97,4.41 7.19,2.94 13.38,7.1 18.57,12.46 5.19,5.36 9.22,11.74 12.07,19.12 2.85,7.39 4.28,15.58 4.28,24.58 0,9 -1.43,17.19 -4.28,24.57 -2.85,7.39 -6.87,13.76 -12.07,19.13 -5.19,5.36 -11.38,9.52 -18.57,12.46 -7.19,2.94 -15.18,4.41 -23.97,4.41 -8.67,0 -16.63,-1.47 -23.88,-4.41 -7.25,-2.94 -13.47,-7.09 -18.66,-12.46 -5.19,-5.37 -9.22,-11.74 -12.07,-19.13 -2.86,-7.38 -4.28,-15.57 -4.28,-24.57 0,-9 1.43,-17.19 4.28,-24.58 2.85,-7.38 6.87,-13.76 12.07,-19.12 5.19,-5.36 11.41,-9.52 18.66,-12.46 7.25,-2.94 15.21,-4.41 23.88,-4.41zm0 109.55c7.19,0 13.67,-1.16 19.43,-3.46 5.76,-2.31 10.67,-5.59 14.72,-9.86 4.05,-4.27 7.16,-9.43 9.33,-15.49 2.17,-6.06 3.25,-12.78 3.25,-20.16 0,-7.5 -1.11,-14.25 -3.34,-20.25 -2.23,-6 -5.36,-11.13 -9.41,-15.4 -4.05,-4.27 -8.96,-7.56 -14.72,-9.86 -5.76,-2.31 -12.18,-3.46 -19.26,-3.46 -7.19,0 -13.67,1.16 -19.43,3.46 -5.76,2.31 -10.67,5.59 -14.72,9.86 -4.05,4.27 -7.19,9.41 -9.42,15.4 -2.22,6 -3.34,12.75 -3.34,20.25 0,7.38 1.11,14.1 3.34,20.16 2.23,6.06 5.36,11.22 9.42,15.49 4.05,4.27 8.96,7.56 14.72,9.86 5.76,2.3 12.24,3.46 19.43,3.46zm-157.76 0c9.13,0 17.26,-2.02 24.39,-6.06 7.13,-4.04 12.7,-9.69 16.69,-16.96l9.07 7.79c-5.14,8.54 -12.04,15.14 -20.71,19.82 -8.67,4.67 -18.49,7 -29.44,7 -8.67,0 -16.61,-1.47 -23.8,-4.41 -7.19,-2.94 -13.35,-7.09 -18.49,-12.46 -5.14,-5.37 -9.13,-11.74 -11.98,-19.13 -2.85,-7.38 -4.28,-15.57 -4.28,-24.57 0,-9 1.43,-17.19 4.28,-24.58 2.86,-7.38 6.85,-13.76 11.98,-19.12 5.14,-5.36 11.3,-9.52 18.49,-12.46 7.19,-2.94 15.12,-4.41 23.8,-4.41 10.95,0 20.77,2.33 29.44,7.01 8.67,4.67 15.58,11.28 20.71,19.82l-9.07 7.79c-4,-7.27 -9.56,-12.92 -16.69,-16.96 -7.13,-4.04 -15.26,-6.06 -24.39,-6.06 -7.08,0 -13.47,1.16 -19.17,3.46 -5.71,2.31 -10.58,5.59 -14.64,9.86 -4.05,4.27 -7.16,9.41 -9.33,15.4 -2.17,6 -3.25,12.75 -3.25,20.25 0,7.38 1.08,14.1 3.25,20.16 2.17,6.06 5.28,11.22 9.33,15.49 4.05,4.27 8.93,7.56 14.64,9.86 5.71,2.3 12.09,3.46 19.17,3.46zm1982.28 -425.19l-0.8 -51.15c0,-34.69 -9.75,-59.47 -29.09,-74.33 -19.34,-14.86 -46.84,-22.22 -82.16,-22.22 -17.42,0 -32.77,2.08 -45.88,6.23 -13.27,4.32 -23.82,10.07 -31.65,17.42 -7.99,7.36 -13.91,15.67 -17.74,24.94 -1.44,3.51 -5.27,16.62 -11.19,39.8 -7.19,27.97 -21.74,42.04 -43.64,42.04 -12.47,0 -22.54,-4.15 -30.21,-12.31 -7.68,-8.31 -11.51,-19.5 -11.51,-33.41 0,-20.62 7.67,-40.76 23.02,-60.43 15.18,-19.82 38.52,-36.13 70.01,-49.07 31.33,-12.95 68.42,-19.34 111.26,-19.34 39.96,0 74.17,6.07 102.46,18.38 28.45,12.31 49.39,30.05 62.82,53.07 9.43,15.82 14.07,44.76 14.07,86.64l0 179.67c0,25.42 0.8,42.04 2.4,49.87 3.36,13.43 9.43,23.34 18.06,30.05 8.47,6.71 19.66,10.07 33.41,10.07 14.39,0 31.65,-3.2 51.63,-9.75l0 40.76c-26.06,7.51 -49.23,11.19 -70.02,11.19 -22.22,0 -40.92,-3.04 -56.11,-9.27 -15.18,-6.23 -27.65,-15.35 -37.24,-27.33 -9.75,-11.99 -15.99,-26.38 -18.86,-42.84 -37.4,29.25 -71.29,49.87 -101.66,61.7 -30.21,11.83 -60.9,17.74 -91.75,17.74 -32.33,0 -60.13,-6.59 -83.36,-19.78l0 12.11 -179.27 0 -60.5 0 -180.23 0 0 -39.32 13.11 0c22.38,0 37.56,-2.08 45.55,-6.07 8.15,-4.16 13.91,-10.07 17.43,-17.9 3.68,-7.83 5.43,-23.82 5.43,-47.95l0 -171.68c0,-35.49 -2.88,-59.94 -8.63,-73.69 -5.76,-13.75 -15.67,-24.78 -29.57,-33.41 -13.91,-8.47 -31.33,-12.79 -52.59,-12.79 -25.26,0 -52.27,6.4 -81.04,19.34 -28.61,12.95 -56.43,32.13 -83.28,57.23l0 215c0,24.45 1.76,40.76 5.43,48.91 3.52,8.15 9.43,14.23 17.58,18.38 5.59,3.04 20.62,4.64 44.92,4.64l13.59 0 0 39.32 -173.05 0c-20.8,5.14 -39.67,7.67 -56.89,7.67 -22.22,0 -40.92,-3.04 -56.11,-9.27 -15.18,-6.23 -27.65,-15.35 -37.24,-27.33 -9.75,-11.99 -15.99,-26.38 -18.86,-42.84 -37.4,29.25 -71.29,49.87 -101.66,61.7 -30.21,11.83 -60.9,17.74 -91.75,17.74 -43,0 -78.01,-11.67 -104.86,-35 -26.85,-23.34 -40.28,-50.67 -40.28,-82.16 0,-19.02 4.95,-36.93 14.86,-54.03 9.91,-17.1 24.94,-32.29 45.08,-45.4 20.3,-12.95 52.11,-24.46 95.27,-34.53 43.32,-9.91 103.42,-18.86 180.31,-27.01l-0.8 -51.15c0,-34.69 -9.75,-59.47 -29.09,-74.33 -19.34,-14.86 -46.84,-22.22 -82.16,-22.22 -17.42,0 -32.77,2.08 -45.88,6.23 -13.27,4.32 -23.82,10.07 -31.65,17.42 -7.99,7.36 -13.91,15.67 -17.74,24.94 -1.44,3.51 -5.27,16.62 -11.19,39.8 -7.19,27.97 -21.74,42.04 -43.64,42.04 -12.47,0 -22.54,-4.15 -30.21,-12.31 -7.68,-8.31 -11.51,-19.5 -11.51,-33.41 0,-20.62 7.67,-40.76 23.02,-60.43 4.93,-6.43 10.72,-12.5 17.37,-18.2 -9.88,0.77 -18.36,2.71 -25.44,5.73 -8.47,3.68 -15.18,8.47 -20.14,14.39 -4.79,5.91 -11.99,20.14 -21.74,42.52l-149.62 349.43 -56.75 0 -149.46 -357.58c-6.23,-14.54 -13.11,-26.54 -20.62,-35.81 -4.95,-5.91 -11.67,-10.55 -19.82,-13.91 -4.45,-1.8 -9.26,-3.13 -14.46,-3.99l0 300.99c0,24.3 1.6,39.48 4.64,45.72 4.15,8.79 10.07,15.18 17.9,19.18 7.83,4 22.7,6.07 44.92,6.07l15.03 0 0 39.32 -170.31 0 -71.38 0 -110.33 0c2.26,2.33 4.35,4.73 6.28,7.19 13.59,17.58 20.3,38.36 20.3,62.66 0,41.24 -19.02,74.17 -57.23,98.79 -48.43,31.49 -120.37,47.16 -215.63,47.16 -50.03,0 -90.64,-5.27 -121.97,-15.82 -31.17,-10.71 -55.47,-25.58 -72.73,-44.92 -12.47,-14.07 -18.71,-28.61 -18.71,-43.48 0,-19.34 6.4,-38.2 19.03,-56.58 12.63,-18.38 42.04,-44.6 88.07,-78.49 -29.57,-7.51 -50.83,-16.3 -63.62,-26.22 -16.14,-12.79 -24.3,-27.17 -24.3,-43.48 0,-7.99 1.44,-15.51 4.48,-22.54 2.87,-7.04 7.83,-14.07 14.54,-21.1 6.72,-6.87 18.86,-16.63 36.76,-29.09 11.19,-7.83 19.18,-13.59 23.82,-17.26 -22.86,-16.31 -40.12,-34.53 -51.63,-54.67 -11.67,-19.98 -17.42,-42.2 -17.42,-66.18 0,-39.64 15.35,-74.33 45.88,-103.9 37.25,-36.28 87.44,-54.35 150.58,-54.35 28.13,0 52.42,4.64 73.69,10.39 12.66,3.42 24.69,-16.78 36.17,-33.46 14.05,-20.42 31.6,-30.9 57.41,-30.9 11.19,0 20.62,3.36 28.3,9.91 7.67,6.55 11.51,14.71 11.51,24.14 0,9.91 -3.48,18.1 -10.39,24.94 -6.83,6.75 -15.5,10.07 -26.22,10.07 -4.32,0 -10.26,-0.45 -17.74,-1.92 -8.83,-1.73 -16.14,-2.87 -22.06,-2.87 -7.83,0 -15.99,3.51 -24.46,10.71 67.76,30.62 110.29,168.22 28.55,248.99 -34.16,33.76 -82.01,47.48 -137.15,47.48 -30.69,0 -61.38,-6.55 -92.39,-19.5 -20.3,14.54 -31.97,23.66 -34.68,27.01 -4.32,5.27 -6.55,10.87 -6.55,16.78 0,8.95 4.64,16.31 14.06,22.22 11.83,7.83 35.33,14.23 70.18,19.5l135.39 20.14c26.09,4.05 52.42,10.53 78.78,19.34 21.97,-0.12 67.22,-1.95 74.11,-5.59 7.08,-3.74 12.15,-9.11 15.03,-15.99 3.04,-6.87 4.47,-23.02 4.47,-48.44l0 -274.3 -80.56 0 0 -39.32c25.9,-3.04 47.47,-7.36 65.06,-12.95 17.58,-5.59 37.72,-14.39 60.1,-26.37l34.05 0 0 375.01c0,13.11 1.92,22.86 5.59,29.41 3.84,6.4 9.11,11.19 15.83,14.07 4.71,2.13 12.18,3.48 22.41,4.09 10.47,-0.85 18.62,-3.09 24.5,-6.64 7.68,-4.64 13.11,-11.03 16.47,-19.18 3.36,-7.99 4.95,-24.3 4.95,-48.59l0 -493.93 -80.56 0 0 -39.32c42.52,-3.2 84.08,-16.31 124.52,-39.32l34.69 0 0 234.98 199.25 0 0 39.32 -13.11 0c-17.9,0 -28.93,0.64 -33.25,1.92 -6.23,1.76 -11.03,4.79 -14.07,8.79 -3.2,4.16 -4.64,8.95 -4.64,14.55 0,7.67 3.36,20.3 10.23,37.72l106.94 266.95 104.06 -266.95c6.55,-17.1 9.91,-29.57 9.91,-37.25 0,-8.15 -3.2,-14.39 -9.43,-19.02 -6.23,-4.47 -17.42,-6.71 -33.73,-6.71l-22.54 0 0 -39.32 185.11 0 0 34.28c12.66,-9.61 27.98,-18.09 45.95,-25.48 31.33,-12.95 68.42,-19.34 111.26,-19.34 39.96,0 74.17,6.07 102.46,18.38 28.45,12.31 49.39,30.05 62.82,53.07 9.43,15.82 14.07,44.76 14.07,86.64l0 179.67c0,25.42 0.8,42.04 2.4,49.87 3.36,13.43 9.43,23.34 18.06,30.05 2.63,2.08 5.52,3.84 8.66,5.27l5.48 0c23.34,0 39.32,-1.92 47.96,-5.91 8.47,-3.84 14.39,-10.87 17.9,-20.94 1.92,-4.95 2.88,-22.22 2.88,-51.79l0 -265.67 -79.61 0 0 -39.32c28.13,-3.2 49.07,-6.87 62.98,-11.19 13.91,-4.47 34.05,-13.74 60.26,-28.13l34.05 0 0 88.88c40.92,-34.53 75.93,-58.03 105.02,-70.34 28.93,-12.31 58.34,-18.54 88.24,-18.54 25.41,0 47.95,4.32 67.46,12.79 19.66,8.63 35.49,20.3 47.79,34.85 12.31,14.71 20.3,31.33 24.46,50.03 2.4,11.51 3.68,29.09 3.68,52.43l0 205.72c0,24.62 1.76,40.28 5.44,47.32 3.51,7.03 9.27,11.99 17.1,15.18 5.51,2.09 16.34,3.5 32.64,4.18 12.18,-0.77 20.79,-2.5 25.94,-5.14 7.03,-3.84 12.15,-9.11 15.03,-15.99 3.04,-6.87 4.47,-23.02 4.47,-48.44l0 -274.3 -80.56 0 0 -39.32c25.9,-3.04 47.47,-7.36 65.06,-12.95 17.58,-5.59 37.72,-14.39 60.1,-26.37l34.05 0 0 375.01c0,13.11 1.92,22.86 5.59,29.41 3.84,6.4 9.11,11.19 15.83,14.07 5.12,2.32 13.5,3.71 25.12,4.23 -18.51,-20.51 -27.77,-43.78 -27.77,-69.93 0,-19.02 4.95,-36.93 14.86,-54.03 9.91,-17.1 24.94,-32.29 45.08,-45.4 20.3,-12.95 52.11,-24.46 95.27,-34.53 43.32,-9.91 103.42,-18.86 180.31,-27.01zm-0.32 40.28c-72.89,10.55 -117.97,17.9 -135.23,21.9 -34.37,7.83 -58.82,16.46 -73.53,25.73 -14.86,9.43 -25.42,19.5 -31.65,30.21 -6.23,10.71 -9.43,22.22 -9.43,34.37 0,12.15 3.51,23.82 10.55,35.17 7.03,11.51 17.1,20.46 29.89,27.02 12.95,6.55 26.54,9.75 41.08,9.75 20.3,0 43.48,-4.8 69.21,-14.55 25.74,-9.59 58.66,-28.45 98.95,-56.43l0.16 -113.17zm-394.74 -444.06c15.03,0 27.65,5.27 38.36,15.67 10.55,10.55 15.82,23.34 15.82,38.2 0,15.03 -5.27,27.98 -15.82,38.53 -10.71,10.71 -23.34,15.99 -38.36,15.99 -14.86,0 -27.65,-5.27 -38.36,-15.99 -10.55,-10.55 -15.82,-23.5 -15.82,-38.53 0,-14.86 5.27,-27.65 15.82,-38.2 10.71,-10.39 23.5,-15.67 38.36,-15.67zm-736.26 444.06c-72.89,10.55 -117.97,17.9 -135.23,21.9 -34.37,7.83 -58.82,16.46 -73.53,25.73 -14.86,9.43 -25.42,19.5 -31.65,30.21 -6.23,10.71 -9.43,22.22 -9.43,34.37 0,12.15 3.51,23.82 10.55,35.17 7.03,11.51 17.1,20.46 29.89,27.02 12.95,6.55 26.54,9.75 41.08,9.75 20.3,0 43.48,-4.8 69.21,-14.55 25.74,-9.59 58.66,-28.45 98.95,-56.43l0.16 -113.17zm-1248.41 -188.94c-30.69,0 -56.59,11.03 -77.85,33.25 -21.26,22.22 -31.97,49.71 -31.97,82.48 0,21.9 4.79,41.72 14.54,59.47 9.75,17.58 23.34,31.49 40.92,41.72 17.42,10.07 35.97,15.18 55.31,15.18 19.34,0 37.88,-5.11 55.62,-15.5 17.75,-10.23 31.33,-24.14 40.76,-41.72 9.59,-17.42 14.39,-37.25 14.39,-59.15 0,-34.36 -10.39,-62.18 -31.17,-83.6 -20.78,-21.42 -47.64,-32.13 -80.56,-32.13zm-74.49 406.34c-30.05,25.58 -50.03,46.35 -59.94,62.34 -9.75,15.82 -14.71,31.17 -14.71,45.88 0,12.47 4.95,24.46 14.71,36.29 9.91,11.67 26.69,21.26 50.51,28.77 23.81,7.51 53.55,11.19 89.52,11.19 42.68,0 79.12,-4.64 109.65,-13.75 30.37,-9.27 52.27,-21.1 65.38,-35.33 9.75,-11.35 14.54,-24.62 14.54,-39.8 0,-13.11 -4,-24.3 -11.99,-33.25 -7.99,-9.11 -23.02,-16.95 -45.08,-23.66 -21.9,-6.71 -42.52,-11.67 -61.54,-14.86l-151.05 -23.82z"/>
 </g>
</svg>
